<svg id="Logo" xmlns="http://www.w3.org/2000/svg" width="290" height="78" viewBox="0 0 290 78"><defs><style>.cls-1,.cls-2{fill:#23e6a8;}.cls-1{opacity:0.4;}.cls-3{fill:#130f35;}</style></defs><title>Artboard 23</title><path class="cls-1" d="M48.5,67a8,8,0,0,1-8-8V27H8.5a8,8,0,0,1,0-16h40a8,8,0,0,1,8,8V59A8,8,0,0,1,48.5,67Z"/><path class="cls-2" d="M48.5,67H8.5a8,8,0,0,1-8-8V19a8,8,0,1,1,16,0V51h32a8,8,0,0,1,0,16Z"/><path class="cls-3" d="M111.78,49.62A15.33,15.33,0,0,1,85.56,38.75a15.41,15.41,0,0,1,26.22-10.88,14.78,14.78,0,0,1,4.46,10.88A14.74,14.74,0,0,1,111.78,49.62Zm-16.5-5.13a7.51,7.51,0,0,0,5.59,2.26,7.63,7.63,0,0,0,5.63-2.26,7.77,7.77,0,0,0,2.26-5.74A7.77,7.77,0,0,0,106.5,33a7.63,7.63,0,0,0-5.63-2.26A7.51,7.51,0,0,0,95.28,33,7.83,7.83,0,0,0,93,38.75,7.83,7.83,0,0,0,95.28,44.49Z"/><path class="cls-3" d="M146.23,53.25h-8.64l-6.3-8.79L125,53.25h-8.64L127,38.45l-10.17-14.2h8.65l5.85,8.17,5.86-8.17h8.59L135.62,38.43Z"/><path class="cls-3" d="M168.85,24.25h8L166.28,53.3q-2.26,6.21-6,9A13.75,13.75,0,0,1,151,64.85v-7a7.49,7.49,0,0,0,4.78-1.28,8.87,8.87,0,0,0,2.81-4.29L146.69,24.25h8.18l7.56,19.49Z"/><path class="cls-3" d="M180.39,53.25V10.91h7.48V53.25Z"/><path class="cls-3" d="M216.76,24.25h7.48v29h-7.48V49.83a11.41,11.41,0,0,1-9.46,4.23,13.13,13.13,0,0,1-9.94-4.44,15.29,15.29,0,0,1-4.15-10.87,15.33,15.33,0,0,1,4.15-10.88,13.15,13.15,0,0,1,9.94-4.43,11.41,11.41,0,0,1,9.46,4.23ZM203,44.64a7.78,7.78,0,0,0,5.75,2.29,7.87,7.87,0,0,0,5.77-2.29,8,8,0,0,0,2.29-5.89,8,8,0,0,0-2.29-5.89,7.87,7.87,0,0,0-5.77-2.29A7.78,7.78,0,0,0,203,32.86a8.06,8.06,0,0,0-2.26,5.89A8.06,8.06,0,0,0,203,44.64Z"/><path class="cls-3" d="M247.9,23.44a13.23,13.23,0,0,1,10,4.43,15.37,15.37,0,0,1,4.14,10.88,15.33,15.33,0,0,1-4.14,10.87,13.21,13.21,0,0,1-10,4.44q-6.09,0-9.39-4.23v3.42H231V12.65h7.49v15Q241.81,23.44,247.9,23.44Zm-7.13,21.2a7.75,7.75,0,0,0,5.74,2.29,7.85,7.85,0,0,0,5.77-2.29,8,8,0,0,0,2.29-5.89,8,8,0,0,0-2.29-5.89,7.85,7.85,0,0,0-5.77-2.29,7.75,7.75,0,0,0-5.74,2.29,8,8,0,0,0-2.26,5.89A8,8,0,0,0,240.77,44.64Z"/><path class="cls-3" d="M273.6,32.49c0,.77.51,1.4,1.53,1.88a21.06,21.06,0,0,0,3.74,1.28A37.39,37.39,0,0,1,283.28,37,8.55,8.55,0,0,1,287,39.85a7.76,7.76,0,0,1,1.54,4.93,8,8,0,0,1-3.33,6.87,13.84,13.84,0,0,1-8.33,2.41q-8.92,0-12.18-6.9l6.5-3.65q1.27,3.77,5.68,3.77c2.67,0,4-.84,4-2.5,0-.77-.51-1.4-1.53-1.88a21.76,21.76,0,0,0-3.74-1.31,37.84,37.84,0,0,1-4.41-1.45,9.06,9.06,0,0,1-3.74-2.75,7.23,7.23,0,0,1-1.54-4.73,8.11,8.11,0,0,1,3.16-6.76A12.42,12.42,0,0,1,277,23.44,13.19,13.19,0,0,1,283.4,25,11.67,11.67,0,0,1,288,29.59l-6.38,3.48a4.76,4.76,0,0,0-4.64-3,4.22,4.22,0,0,0-2.41.64A2,2,0,0,0,273.6,32.49Z"/><path class="cls-3" d="M180.5,73.25V60.11h2.39V73.25Z"/><path class="cls-3" d="M187.1,69.7a2.37,2.37,0,0,0,2.61,1.7,2.48,2.48,0,0,0,2.08-.9l1.93,1.08a4.65,4.65,0,0,1-4,1.92A5,5,0,0,1,186,72.15a4.52,4.52,0,0,1-1.39-3.4A4.58,4.58,0,0,1,186,65.36,4.77,4.77,0,0,1,189.49,64a4.48,4.48,0,0,1,3.37,1.37,4.68,4.68,0,0,1,1.32,3.38,5.34,5.34,0,0,1-.09,1Zm0-1.8h4.73a2.19,2.19,0,0,0-.84-1.36,2.48,2.48,0,0,0-1.46-.45,2.54,2.54,0,0,0-1.59.47A2.32,2.32,0,0,0,187.06,67.9Z"/><path class="cls-3" d="M202.82,64.25h2.39v9h-2.39V72.19a3.7,3.7,0,0,1-3,1.31,4.24,4.24,0,0,1-3.18-1.38,4.95,4.95,0,0,1,0-6.75A4.27,4.27,0,0,1,199.8,64a3.7,3.7,0,0,1,3,1.31Zm-4.41,6.33a2.51,2.51,0,0,0,1.83.71,2.57,2.57,0,0,0,1.85-.71,2.66,2.66,0,0,0,0-3.66,2.57,2.57,0,0,0-1.85-.71,2.51,2.51,0,0,0-1.83.71,2.69,2.69,0,0,0,0,3.66Z"/><path class="cls-3" d="M209.77,65.8a2.44,2.44,0,0,1,1.1-1.3,3.46,3.46,0,0,1,1.72-.43v2.59a2.93,2.93,0,0,0-2,.43,2.06,2.06,0,0,0-.86,1.86v4.3h-2.39v-9h2.39Z"/><path class="cls-3" d="M219.13,64a3.39,3.39,0,0,1,2.51,1,3.66,3.66,0,0,1,1,2.73v5.53h-2.39V68a1.84,1.84,0,0,0-.5-1.38,1.9,1.9,0,0,0-1.34-.47,2,2,0,0,0-1.48.56,2.28,2.28,0,0,0-.56,1.67v4.86H214v-9h2.39v1A3.12,3.12,0,0,1,219.13,64Z"/><path class="cls-3" d="M225.86,63.17a1.44,1.44,0,0,1-1-.42,1.39,1.39,0,0,1,0-2,1.47,1.47,0,0,1,2.08,0,1.37,1.37,0,0,1,0,2A1.46,1.46,0,0,1,225.86,63.17Zm-1.18,10.08v-9h2.39v9Z"/><path class="cls-3" d="M234.41,64a3.41,3.41,0,0,1,2.51,1,3.69,3.69,0,0,1,1,2.73v5.53h-2.39V68a1.84,1.84,0,0,0-.5-1.38,1.89,1.89,0,0,0-1.34-.47,2,2,0,0,0-1.48.56,2.27,2.27,0,0,0-.55,1.67v4.86h-2.4v-9h2.4v1A3.12,3.12,0,0,1,234.41,64Z"/><path class="cls-3" d="M247.05,64.25h2.34v8.57A3.79,3.79,0,0,1,248,76a5.39,5.39,0,0,1-3.42,1.1,5.83,5.83,0,0,1-2.64-.56,4,4,0,0,1-1.76-1.63l2-1.14A2.55,2.55,0,0,0,244.62,75a2.59,2.59,0,0,0,1.78-.57,2.09,2.09,0,0,0,.65-1.64v-1a3.52,3.52,0,0,1-3,1.36,4.61,4.61,0,1,1,0-9.21,3.5,3.5,0,0,1,3,1.37Zm-4.46,6.13a2.87,2.87,0,0,0,3.73,0,2.5,2.5,0,0,0,0-3.53,2.87,2.87,0,0,0-3.73,0,2.5,2.5,0,0,0,0,3.53Z"/><path class="cls-3" d="M261.34,64a3.39,3.39,0,0,1,2.51,1,3.66,3.66,0,0,1,1,2.73v5.53h-2.39V68a1.84,1.84,0,0,0-.5-1.38,1.9,1.9,0,0,0-1.34-.47,2,2,0,0,0-1.48.56,2.28,2.28,0,0,0-.56,1.67v4.86h-2.39V60.65h2.39v4.61A3.12,3.12,0,0,1,261.34,64Z"/><path class="cls-3" d="M273,64.25h2.39v9H273v-1a3.12,3.12,0,0,1-2.76,1.26,3.41,3.41,0,0,1-2.51-1,3.69,3.69,0,0,1-1-2.73V64.25h2.39v5.24a1.8,1.8,0,0,0,.5,1.37,1.84,1.84,0,0,0,1.33.48,2,2,0,0,0,1.49-.56,2.27,2.27,0,0,0,.55-1.67Z"/><path class="cls-3" d="M283,64a4.29,4.29,0,0,1,3.19,1.37,4.95,4.95,0,0,1,0,6.75A4.26,4.26,0,0,1,283,73.5a3.66,3.66,0,0,1-3-1.31v1.06h-2.39V60.65H280v4.66A3.66,3.66,0,0,1,283,64Zm-2.28,6.58a2.51,2.51,0,0,0,1.83.71,2.57,2.57,0,0,0,1.85-.71,2.66,2.66,0,0,0,0-3.66,2.57,2.57,0,0,0-1.85-.71,2.51,2.51,0,0,0-1.83.71,2.66,2.66,0,0,0,0,3.66Z"/></svg>